<svg width="20" height="20" viewBox="0 0 20 20" fill="none" xmlns="http://www.w3.org/2000/svg">
<path d="M12.5667 7.42667C12.8267 7.42667 13.08 7.44667 13.3267 7.48C12.8733 5.5 10.7933 4 8.29334 4C5.46 4 3.16 5.92 3.16 8.28667C3.16 9.65333 3.92667 10.86 5.12 11.6467L4.44667 13L6.28667 12.2067C6.68 12.3467 7.09334 12.46 7.53334 12.52C7.47334 12.26 7.44 11.9933 7.44 11.7133C7.43334 9.35333 9.73334 7.42667 12.5667 7.42667ZM10 5.92667C10.084 5.92667 10.1673 5.94322 10.2449 5.97538C10.3226 6.00755 10.3931 6.05469 10.4526 6.11412C10.512 6.17355 10.5591 6.2441 10.5913 6.32175C10.6234 6.3994 10.64 6.48262 10.64 6.56667C10.64 6.65071 10.6234 6.73394 10.5913 6.81158C10.5591 6.88923 10.512 6.95979 10.4526 7.01922C10.3931 7.07864 10.3226 7.12579 10.2449 7.15795C10.1673 7.19011 10.084 7.20667 10 7.20667C9.83027 7.20667 9.66748 7.13924 9.54746 7.01922C9.42743 6.89919 9.36 6.73641 9.36 6.56667C9.36 6.39693 9.42743 6.23414 9.54746 6.11412C9.66748 5.9941 9.83027 5.92667 10 5.92667ZM6.58 7.21333C6.41026 7.21333 6.24748 7.14591 6.12746 7.02588C6.00743 6.90586 5.94 6.74307 5.94 6.57333C5.94 6.40359 6.00743 6.24081 6.12746 6.12079C6.24748 6.00076 6.41026 5.93333 6.58 5.93333C6.74974 5.93333 6.91253 6.00076 7.03255 6.12079C7.15258 6.24081 7.22 6.40359 7.22 6.57333C7.22 6.74307 7.15258 6.90586 7.03255 7.02588C6.91253 7.14591 6.74974 7.21333 6.58 7.21333Z" fill="black"/>
<path d="M16.84 11.7133C16.84 9.82 14.9267 8.28667 12.5667 8.28667C10.2067 8.28667 8.29333 9.82 8.29333 11.7133C8.29333 13.6067 10.2067 15.14 12.5667 15.14C12.9533 15.14 13.3267 15.0867 13.68 15.0067L15.9867 16L15.1867 14.4C16.1867 13.7733 16.84 12.8133 16.84 11.7133ZM11.28 11.5C11.1534 11.5 11.0297 11.4625 10.9244 11.3921C10.8192 11.3218 10.7372 11.2219 10.6887 11.1049C10.6403 10.988 10.6276 10.8593 10.6523 10.7351C10.677 10.611 10.7379 10.497 10.8275 10.4075C10.917 10.3179 11.031 10.257 11.1551 10.2323C11.2793 10.2076 11.408 10.2203 11.5249 10.2687C11.6419 10.3172 11.7418 10.3992 11.8121 10.5044C11.8825 10.6097 11.92 10.7334 11.92 10.86C11.9267 11.2133 11.6333 11.5 11.28 11.5ZM13.8467 11.5C13.6769 11.5 13.5141 11.4326 13.3941 11.3125C13.2741 11.1925 13.2067 11.0297 13.2067 10.86C13.2067 10.6903 13.2741 10.5275 13.3941 10.4075C13.5141 10.2874 13.6769 10.22 13.8467 10.22C14.0164 10.22 14.1792 10.2874 14.2992 10.4075C14.4192 10.5275 14.4867 10.6903 14.4867 10.86C14.4867 11.0297 14.4192 11.1925 14.2992 11.3125C14.1792 11.4326 14.0164 11.5 13.8467 11.5Z" fill="black"/>
</svg>
